<svg xmlns="http://www.w3.org/2000/svg" width="32" height="32" viewBox="0 0 32 32"><path d="M29.176 5.007l-4.392 1.04V23.07l4.392.997V5.007zm0 21.972l-14.902-3.381v5.718c0 .3-.05.598-.148.881a2.663 2.663 0 01-3.395 1.653l-4.706-1.647a2.682 2.682 0 01-1.791-2.534V21.32l-2.278-.517A2.522 2.522 0 01-.002 18.34v-7.344c0-1.172.801-2.19 1.935-2.458l27.241-6.449v-.668c0-.784.632-1.42 1.412-1.42s1.412.636 1.412 1.42v26.202c0 .785-.632 1.42-1.412 1.42s-1.412-.636-1.412-1.42v-.643zM21.961 6.716L2.824 11.247v6.842l19.137 4.342V6.717zM7.059 27.557l4.392 1.537v-5.696l-4.392-.961v5.119z"/></svg>