<svg xmlns="http://www.w3.org/2000/svg" width="16" height="19" viewBox="0 0 16 19"><path fill="#183247" fill-rule="nonzero" d="M4.559 15.903H.727A.74.74 0 010 15.15a.74.74 0 01.727-.754h.647v-6.36c0-3.393 2.376-6.21 5.499-6.765a1.23 1.23 0 01-.004-.1C6.869.526 7.375 0 8 0s1.131.525 1.131 1.172c0 .033-.001.066-.004.099 3.123.554 5.5 3.372 5.5 6.764v6.361h.646a.74.74 0 01.727.754.74.74 0 01-.727.753H11.44C11.205 17.653 9.755 19 8 19s-3.205-1.347-3.441-3.097zm1.48 0c.217.913 1.012 1.59 1.961 1.59.949 0 1.744-.677 1.962-1.59H6.038zm7.133-1.507v-6.36c0-2.96-2.316-5.358-5.172-5.358S2.828 5.077 2.828 8.035v6.361h10.344z"/></svg>
